<svg xmlns="http://www.w3.org/2000/svg" width="199" height="80" viewBox="0 0 199 80">
  <defs>
    <style>
      .cls-1 {
        fill: rgba(255,255,255,0);
      }

      .cls-2 {
        fill: #999;
      }
    </style>
  </defs>
  <g id="Group_8004" data-name="Group 8004" transform="translate(-692 -2116.125)">
    <rect id="Rectangle_3132" data-name="Rectangle 3132" class="cls-1" width="199" height="80" transform="translate(692 2116.125)"/>
    <g id="National-Geographic-Logo" transform="translate(720.965 2135.125)">
      <path id="Path_8661" data-name="Path 8661" class="cls-2" d="M0,0V42H28.925V0ZM24.741,37.772H4.169V4.231H24.741Z"/>
      <path id="Path_8662" data-name="Path 8662" class="cls-2" d="M60.562,16.25h-.041c-2.307-3.758-4.637-7.078-6.986-10.42H51.742V20.449h1.979V9.964h.02c2.33,3.781,4.658,7.122,7.009,10.484h1.793V5.83h-1.98Zm14.283,4.2L70.248,5.83h-2.06L63.2,20.449h2.143L66.6,16.46h4.347l1.134,3.989ZM67.24,14.663c.577-1.922,1.155-3.694,1.67-5.952h.042c.577,2.258,1.092,4.03,1.628,5.952Zm9.933,5.786h2.473V7.794h3.793V5.83H73.382V7.794h3.792V20.449ZM86.694,5.83H84.242V20.449h2.452ZM94.321,20.7c3.772,0,6.121-3.4,6.121-7.768,0-4.093-2.6-7.352-6.121-7.352S88.2,8.837,88.2,12.93C88.2,17.3,90.548,20.7,94.321,20.7Zm0-13.03c2.453,0,3.482,2.568,3.482,5.263,0,2.8-.906,5.68-3.482,5.68s-3.483-2.881-3.483-5.68C90.838,10.236,91.868,7.668,94.321,7.668Zm9.6,2.3h.023c2.328,3.781,4.656,7.122,7.006,10.484h1.793V5.83h-1.979V16.25h-.041c-2.307-3.758-4.637-7.078-6.986-10.42h-1.793V20.449h1.977Zm12.88,6.5h4.35l1.133,3.989h2.761l-4.6-14.619h-2.061L113.4,20.449h2.146Zm2.311-7.749h.041c.576,2.258,1.091,4.03,1.629,5.952h-3.341C118.022,12.741,118.6,10.968,119.114,8.711Zm13.991,9.774h-4.883V5.83h-2.453V20.449h7.337V18.484ZM58.546,37.168a3.576,3.576,0,0,1-1.731.356c-2.122,0-4.183-2.048-4.183-5.513,0-3.32,1.793-5.43,4.431-5.43a5.309,5.309,0,0,1,2.638.772l.8-1.732A6.1,6.1,0,0,0,57,24.492c-4.327,0-7.007,3.488-7.007,7.476,0,4.3,2.68,7.644,6.924,7.644a11.193,11.193,0,0,0,4.1-.9V32.677H58.546v4.491Zm7.192-4.49h4.04V30.717h-4.04v-4.01H69.86V24.744H63.265V39.363H70.6V37.4H65.737Zm11.749-8.186c-3.525,0-6.121,3.258-6.121,7.352,0,4.364,2.349,7.769,6.121,7.769s6.12-3.4,6.12-7.769C83.606,27.751,81.01,24.493,77.486,24.493Zm0,13.032c-2.577,0-3.484-2.882-3.484-5.681,0-2.695,1.03-5.264,3.484-5.264s3.482,2.568,3.482,5.264C80.968,34.642,80.063,37.524,77.486,37.524ZM93,37.168a3.576,3.576,0,0,1-1.731.356c-2.123,0-4.184-2.048-4.184-5.513,0-3.32,1.793-5.43,4.433-5.43a5.3,5.3,0,0,1,2.636.772l.8-1.732a6.1,6.1,0,0,0-3.5-1.128c-4.326,0-7,3.488-7,7.476,0,4.3,2.679,7.644,6.925,7.644a11.2,11.2,0,0,0,4.1-.9V32.677H93v4.491Zm13.067-8.205c0-2.842-1.712-4.219-4.472-4.219H97.745V39.363h2.473V33.849h1.113l2.329,5.513h2.823l-2.9-6.057A4.93,4.93,0,0,0,106.071,28.963Zm-4.823,3.006c-.248.021-.827.043-1.032.063V26.708h1.094a2.108,2.108,0,0,1,2.285,2.359C103.6,31.028,102.423,31.907,101.248,31.969Zm10.264-7.225-4.989,14.619h2.142l1.258-3.99h4.349l1.136,3.99h2.76l-4.6-14.619Zm-.948,8.835c.577-1.923,1.153-3.7,1.669-5.953h.042c.576,2.255,1.091,4.03,1.628,5.953Zm25.7-3.217h-5.132V24.744h-2.453V39.363h2.453V32.324h5.132v7.039h2.472V24.784h-2.472Zm4.841,9h2.452V24.744h-2.452Zm11.109-1.837c-2.391,0-4.411-2.048-4.411-5.513,0-3.32,1.836-5.43,4.349-5.43a5.154,5.154,0,0,1,2.536.814l.782-1.773a6.019,6.019,0,0,0-3.318-1.128c-4.307,0-6.967,3.488-6.967,7.476,0,4.3,2.68,7.644,6.927,7.644a6.221,6.221,0,0,0,3.255-1l-.679-1.818A4.631,4.631,0,0,1,152.214,37.524ZM122.8,24.744h-3.852V39.363h2.473V33.849h1.111a4.748,4.748,0,0,0,4.74-4.886C127.277,26.121,125.568,24.744,122.8,24.744Zm-.35,7.225c-.247.019-.844.039-1.029.058v-5.32h1.111a2.1,2.1,0,0,1,2.268,2.359C124.8,31.028,123.63,31.907,122.455,31.969Z" transform="translate(-14.4 -1.607)"/>
    </g>
  </g>
</svg>
