<svg xmlns="http://www.w3.org/2000/svg" width="199" height="80" viewBox="0 0 199 80">
  <defs>
    <style>
      .cls-1 {
        fill: rgba(255,255,255,0);
      }

      .cls-2 {
        fill: #999;
      }
    </style>
  </defs>
  <g id="Group_7998" data-name="Group 7998" transform="translate(-256 -2116.125)">
    <rect id="Rectangle_3131" data-name="Rectangle 3131" class="cls-1" width="199" height="80" transform="translate(256 2116.125)"/>
    <path id="union-19" class="cls-2" d="M0,60V29.466H2.791l.6-1.485h1.6l.6,1.485h22.7V27.982L29.5,29.467h6.106V28.421a4.083,4.083,0,0,0,2.657,1.046h4.049l.591-1.485h1.605l.6,1.485h5.971V27.8l1.072,1.671h4.1v-9.42h-4.1V21.71l-1.119-1.664H46.97v2.923l-1.26-2.9-7.076-.024a4.759,4.759,0,0,0-3.03,1.067V20.046h-21.8l-.74,2.123L12.3,20.046H7.448v2.94l-1.281-2.94H2.259L0,25.289V0H60.265V32.39H23.9l-1.11,1.4-1.075-1.4H11.7v9.42h9.954l1.09-1.425,1.073,1.425h6.012V39.629h1.352a3.383,3.383,0,0,0,1.715-.354V41.81h3.971V40.325l1.212,1.485H58.214a4.243,4.243,0,0,0,2.051-.65V60ZM26.847,40.6V33.551h3.912A2.328,2.328,0,0,1,33.3,35.923c0,1.62-1.2,2.454-2.773,2.454H28.664V40.6Zm1.818-3.834h1.958a.816.816,0,0,0,.88-.812.8.8,0,0,0-.874-.812H28.664ZM54.331,40.6V39.071h3.545c.524,0,.752-.282.752-.591s-.226-.6-.752-.6h-1.6A1.976,1.976,0,0,1,54.1,35.77c0-1.131.71-2.222,2.779-2.222h3.449l-.746,1.587h-2.98c-.57,0-.745.3-.745.582a.616.616,0,0,0,.652.615H58.19a1.939,1.939,0,0,1,2.225,2.025,2.12,2.12,0,0,1-2.31,2.244Zm-6.5,0V39.071h3.545c.524,0,.752-.282.752-.591s-.226-.6-.752-.6h-1.6a1.976,1.976,0,0,1-2.168-2.113c0-1.131.71-2.222,2.779-2.222h3.449l-.745,1.587H50.1c-.57,0-.745.3-.745.582a.616.616,0,0,0,.652.613h1.678a1.939,1.939,0,0,1,2.225,2.025A2.12,2.12,0,0,1,51.6,40.6Zm-6.6,0V33.55H47.01v1.578H43.02v1.2H46.9v1.485H43.02v1.255h3.99V40.6Zm-2.519,0L36.586,38.1h-.743V40.6H34.071V33.55h3.941a2.288,2.288,0,0,1,2.476,2.289,2.152,2.152,0,0,1-1.943,2.167l2.331,2.6ZM35.84,36.612h2.051a.8.8,0,0,0,.813-.742.812.812,0,0,0-.84-.742H35.842ZM24.4,40.6l-1.666-2.172L21.116,40.6h-2.2l2.814-3.483-2.881-3.57h2.231l1.716,2.207,1.719-2.207h2.144l-2.841,3.527L26.636,40.6Zm-11.495,0V33.55H18.69v1.578H14.7v1.2h3.9v1.485H14.7v1.255h3.99V40.6Zm33-12.342-.557-1.413h-3.27l-.563,1.413H39.539l3.047-7.053H44.9l3.044,7.053Zm-3.2-2.944h2l-1-2.468ZM30.136,28.261l-2.124-2.506h-.746v2.506H25.5V21.208h3.941A2.288,2.288,0,0,1,31.913,23.5a2.152,2.152,0,0,1-1.943,2.166l2.33,2.6Zm-2.87-3.991h2.051a.8.8,0,0,0,.813-.743.812.812,0,0,0-.839-.742H27.266ZM6.386,28.261l-.557-1.413H2.558L2,28.261H.012l3.047-7.053h2.31l3.044,7.053Zm-3.2-2.944H5.181l-1-2.468Zm49.679,2.94-2.948-4.548v4.548H48.147V21.207H50.4l2.875,4.431V21.207h1.771v7.053Zm-14.525,0c-1.888,0-3.035-1.481-3.035-3.5A3.238,3.238,0,0,1,38.825,21.2h1.958v1.67H38.754a1.7,1.7,0,0,0-1.653,1.9,1.732,1.732,0,0,0,1.911,1.941h.466l-.745,1.541Zm-5.706,0V21.207h1.808v7.053Zm-13.946,0V21.207h5.78v1.578H20.48v1.206h3.9v1.485h-3.9v1.253h3.99v1.531Zm-2.983,0V23.063l-1.878,5.2H12.277l-1.883-5.2v5.2H8.622V21.207l2.819.011,1.64,4.548,1.6-4.558h2.8v7.052Z" transform="translate(325.29 2126.125)"/>
  </g>
</svg>
