<svg xmlns="http://www.w3.org/2000/svg" width="199" height="80" viewBox="0 0 199 80"><defs><style>.a{fill:rgba(255,255,255,0);}.b{fill:#999;}</style></defs><g transform="translate(-692 -2116.125)"><rect class="a" width="199" height="80" transform="translate(692 2116.125)"/><g transform="translate(711.143 2141.725)"><path class="b" d="M21.253,13.287a6.327,6.327,0,0,0-.877-2.9L15.788,2.357A6.887,6.887,0,0,1,15.046.4l-.2.337a6.4,6.4,0,0,0,0,6.41l3.711,6.41a6.4,6.4,0,0,1,0,6.41l-.2.337a6.887,6.887,0,0,0-.742-1.957l-3.373-5.87L12.077,8.7a6.887,6.887,0,0,1-.742-1.957l-.2.337a6.4,6.4,0,0,0,0,6.41h0l3.711,6.41a6.4,6.4,0,0,1,0,6.41l-.2.337a6.887,6.887,0,0,0-.742-1.957L9.243,16.66a7.127,7.127,0,0,1-.877-3.508C3.441,14.434,0,17.2,0,20.371,0,24.824,6.612,28.4,14.776,28.4s14.776-3.576,14.776-8.029C29.619,17.335,26.246,14.569,21.253,13.287Zm13.966,13.7a9.2,9.2,0,0,1,.54-2.834,12.659,12.659,0,0,0,5.06,1.08c2.564,0,4.048-.81,4.048-2.5,0-1.619-1.08-2.361-3.643-3.508l-1.417-.54c-2.631-1.147-4.386-2.631-4.386-5.533,0-3.171,2.227-5.2,6.68-5.2a15.305,15.305,0,0,1,5.06.81,10.586,10.586,0,0,1-.54,2.766,14.637,14.637,0,0,0-4.588-.81c-2.429,0-3.508.945-3.508,2.429,0,1.417,1.08,2.294,3.036,3.1l1.484.607c3.508,1.484,4.993,3.1,4.993,5.8,0,3.171-2.429,5.4-7.152,5.4A13.074,13.074,0,0,1,35.219,26.983Zm27.73-13.292v13.9H60.116L59.981,25.9a4.309,4.309,0,0,1-3.913,2.024c-3.643,0-6.14-2.7-6.14-7.354,0-4.858,2.631-7.692,7.759-7.692A17.593,17.593,0,0,1,62.949,13.692ZM59.913,24.419v-8.7a10.926,10.926,0,0,0-2.227-.135c-3.171,0-4.655,1.957-4.655,5.06,0,2.834,1.147,4.858,3.846,4.858A5.3,5.3,0,0,0,59.913,24.419ZM78.6,18.28V27.59H75.566V18.819c0-2.227-.742-3.239-3.778-3.239a16.055,16.055,0,0,0-2.429.2V27.59H66.323v-13.9a26.679,26.679,0,0,1,5.533-.81C76.983,12.949,78.6,14.906,78.6,18.28Zm8.5,7.084a6.171,6.171,0,0,0,2.361-.4c-.067.81-.2,1.754-.337,2.564A6.889,6.889,0,0,1,86.564,28c-2.969,0-4.858-1.349-4.858-4.723V8.631a9.5,9.5,0,0,1,3.036-.472v5.263H89.6c-.067.945-.135,1.822-.27,2.631H84.742v6.814C84.742,24.622,85.619,25.364,87.1,25.364Zm16.4-11.672v13.9h-2.834L100.53,25.9a4.309,4.309,0,0,1-3.913,2.024c-3.643,0-6.14-2.7-6.14-7.354,0-4.858,2.631-7.692,7.759-7.692A17.947,17.947,0,0,1,103.5,13.692Zm-3.1,10.728v-8.7a10.926,10.926,0,0,0-2.227-.135c-3.171,0-4.655,1.957-4.655,5.06,0,2.834,1.147,4.858,3.846,4.858A5.122,5.122,0,0,0,100.4,24.419Zm18.757-6.14V27.59h-3.1V18.819c0-2.227-.742-3.239-3.778-3.239a16.055,16.055,0,0,0-2.429.2V27.59H106.8v-13.9a26.679,26.679,0,0,1,5.533-.81C117.465,12.949,119.152,14.906,119.152,18.28ZM134.6,8.159V27.59h-2.834l-.135-1.754a4.263,4.263,0,0,1-3.981,2.092c-3.643,0-6.14-2.7-6.14-7.354,0-4.858,2.631-7.692,7.759-7.692a12.618,12.618,0,0,1,2.294.2V8.5A11.334,11.334,0,0,1,134.6,8.159Zm-3.036,16.26V15.851a14.869,14.869,0,0,0-2.429-.27c-3.036,0-4.453,1.889-4.453,5.06,0,2.834,1.147,4.858,3.846,4.858A5.483,5.483,0,0,0,131.566,24.419Zm18.419-2.766H140.2c.4,2.5,1.822,3.643,4.588,3.643a10.886,10.886,0,0,0,4.858-1.08c-.135.81-.27,1.889-.472,2.766a11.031,11.031,0,0,1-4.521.877c-5.128,0-7.557-2.834-7.557-7.557,0-4.116,1.889-7.422,6.747-7.422,4.386,0,6.275,2.834,6.275,6.342A13.877,13.877,0,0,1,149.986,21.653ZM140.2,19.089h6.882c0-2.294-1.214-3.643-3.306-3.643C141.552,15.513,140.4,16.728,140.2,19.089Zm20.511-6a13.745,13.745,0,0,1-.27,2.631c-.742-.067-1.417-.135-2.294-.135-.742,0-1.484.067-2.227.135V27.59h-3.036v-13.9a17.482,17.482,0,0,1,5.2-.81C158.959,12.949,160.039,12.949,160.713,13.084Z" transform="translate(0 0)"/></g></g></svg>